<svg xmlns="http://www.w3.org/2000/svg" width="352" height="357" viewBox="0 0 352 357"><path fill="#FFF" d="M175.747 11.103c58.976 0 110.94 30.453 141.097 76.438l2.642-.611c-30.53-47.117-83.537-78.38-143.739-78.38-87.49 0-159.817 65.983-169.94 150.794l2.65-.611c10.384-83.102 81.422-147.63 167.29-147.63zM336.963 208.602c-13.733 79.287-82.975 139.791-166.123 139.791-56.135 0-105.922-27.598-136.592-69.908l-2.688.621c31.078 43.445 81.909 71.838 139.28 71.838 84.781 0 155.326-61.955 168.83-142.967l-2.707.625z"/><path fill="#FFF" d="M175.706 19.343c51.056 0 96.594 23.923 126.103 61.116l1.517-.354c-29.754-37.811-75.882-62.167-127.619-62.167-78.001 0-143.318 55.295-158.848 128.746l1.528-.354C34.033 73.84 98.609 19.343 175.706 19.343zM329.135 209.932c-13.953 74.646-79.551 131.336-158.182 131.336-52.65 0-99.477-25.414-128.861-64.617l-1.487.346c29.614 39.824 77.019 65.68 130.348 65.68 79.533 0 145.841-57.494 159.671-133.088l-1.489.343z"/><g fill="#FFF"><path d="M28.126 248.627l.723-5.079c3.548.551 7.231.341 11.047-.627 4.463-1.134 8.119-3.339 10.967-6.618 2.848-3.279 5.008-7.734 6.481-13.366.471-1.86.867-3.946 1.187-6.258s.63-5.519.932-9.62c.26-3.401.434-7.045.518-10.928.083-3.884.095-7.413.032-10.588-.063-3.174-.237-6.685-.522-10.529l4.845-3.84-.371.039-1.061.105c-7.976 1.01-15.524 2.418-22.644 4.225-3.646.924-6.652 1.941-9.018 3.049-2.365 1.108-4.283 2.412-5.753 3.908-2.004 2.104-2.709 4.331-2.113 6.682 1.219 4.804 7.907 6.009 20.064 3.611l-2.554 4.51c-3.323.627-6.319.754-8.988.379-2.67-.375-4.869-1.213-6.594-2.516-1.727-1.304-2.854-2.993-3.381-5.072-1.063-4.189.721-8.231 5.353-12.128 3.919-3.279 10.205-6.015 18.858-8.211 2.351-.597 5.393-1.225 9.125-1.881 3.73-.655 7.609-1.27 11.636-1.837 4.026-.568 7.394-.944 10.104-1.124l.96-.078-1.133 5.182-.959.08c-3.136.217-6.77.54-10.903.973l-.371.04.028.754.028.755c.429 12.981.222 23.813-.621 32.495-.844 8.681-2.449 15.86-4.815 21.537-2.367 5.679-5.655 10.192-9.863 13.546-4.208 3.353-9.549 5.849-16.022 7.491a38.055 38.055 0 0 1-5.202.939zM84.578 232.726l-4.146-73.36 4.704-3.968 1.638 65.836c.075-.272.105-.442.089-.511l.5-2.956c.852-5.075 2.37-9.666 4.554-13.775 2.076-3.826 4.322-6.046 6.742-6.661 1.294-.328 2.439-.174 3.435.462s1.67 1.652 2.025 3.049c.199.784.292 1.938.281 3.466l.033 2.275-.002 6.636.045 2.109c.008 2.174.15 3.807.426 4.896.277 1.092.687 1.921 1.231 2.49.543.569 1.121.774 1.734.619 1.056-.267 2.422-1.955 4.1-5.065l.948.521-.317.679c-1.363 2.776-2.411 4.684-3.145 5.721-.735 1.037-1.477 1.652-2.226 1.844-1.056.267-2.102-.064-3.137-1-1.034-.934-1.742-2.15-2.123-3.65-.233-.92-.423-2.593-.567-5.022l-.807-11.326c-.1-1.681-.248-2.911-.447-3.695-.182-.716-.508-1.212-.978-1.492-.471-.281-1.029-.338-1.676-.174-1.261.32-2.521 1.429-3.78 3.326-1.26 1.896-2.382 4.366-3.37 7.409a56.852 56.852 0 0 0-2.185 9.501 50.2 50.2 0 0 0-.432 9.874l-3.147 1.942zM136.148 210.663l1.115.534c-1.404 3.33-2.953 5.87-4.647 7.625-1.694 1.753-3.699 2.924-6.017 3.512-2.759.7-5.208.342-7.343-1.074-2.135-1.416-3.588-3.64-4.358-6.671-.778-3.068-.758-6.381.06-9.942.819-3.562 2.185-6.684 4.098-9.363 1.912-2.679 4.061-4.321 6.446-4.926 1.397-.354 2.651-.237 3.761.351 1.11.589 1.83 1.53 2.158 2.824.666 2.626-.099 5.61-2.296 8.958-2.196 3.352-5.531 6.572-10.004 9.666.036.282.096.593.182.933.597 2.352 1.729 4.104 3.401 5.255 1.67 1.155 3.528 1.472 5.572.953 1.602-.404 3.023-1.302 4.268-2.687s2.444-3.368 3.604-5.948zm-17.339.267c3.265-2.569 5.63-5.109 7.096-7.621.983-1.698 1.685-3.436 2.104-5.212.42-1.773.47-3.291.15-4.552-.406-1.603-1.342-2.217-2.807-1.845-2.215.561-4.011 2.876-5.391 6.941-1.379 4.07-1.762 8.166-1.152 12.289zM181.407 164.803l-2.417-3.521c2.936-1.725 5.574-3.898 7.918-6.525 2.344-2.624 4.031-5.301 5.061-8.028 1.03-2.729 1.261-5.216.69-7.464-.424-1.669-1.293-2.847-2.608-3.526-1.316-.682-2.875-.794-4.68-.336-2.148.545-4.355 1.703-6.625 3.477-2.271 1.772-4.402 3.982-6.397 6.626-1.993 2.647-3.774 5.673-5.338 9.079-1.7 3.732-2.958 7.496-3.771 11.292-.813 3.797-1.204 7.55-1.169 11.258.035 3.708.527 7.436 1.478 11.183 1.617 6.372 4.363 11.051 8.24 14.038s8.353 3.836 13.43 2.549c3.271-.83 6.261-2.368 8.973-4.617 2.711-2.247 5.625-5.597 8.736-10.049l.649-.871.9.968c-3.036 5.048-6.341 9.098-9.92 12.146-3.578 3.046-7.445 5.098-11.602 6.153-3.749.951-7.305.901-10.672-.149-3.367-1.048-6.251-2.982-8.651-5.799-2.402-2.818-4.151-6.39-5.249-10.718-.796-3.134-1.166-6.521-1.11-10.161.055-3.64.551-7.438 1.488-11.394a73.26 73.26 0 0 1 3.891-11.784 60.91 60.91 0 0 1 6.373-11.544c2.506-3.555 5.179-6.49 8.018-8.807 2.839-2.316 5.537-3.797 8.092-4.447 2.419-.613 4.526-.414 6.325.599 1.798 1.012 2.995 2.693 3.592 5.045.667 2.623.492 5.579-.525 8.863-1.015 3.285-2.688 6.412-5.018 9.378-2.33 2.965-5.03 5.327-8.102 7.086zM208.645 190.256c-.777-3.067-.728-6.335.151-9.803.88-3.468 2.388-6.487 4.527-9.062 2.138-2.574 4.57-4.206 7.297-4.898 2.861-.727 5.409-.364 7.645 1.079 2.233 1.446 3.732 3.668 4.492 6.667.83 3.271.825 6.644-.017 10.12-.839 3.478-2.331 6.529-4.474 9.16-2.146 2.629-4.562 4.285-7.253 4.967-2.896.735-5.479.35-7.746-1.163-2.268-1.51-3.81-3.865-4.622-7.067zm19.02-16.793c-.519-2.044-1.449-3.604-2.792-4.676-1.344-1.075-2.797-1.413-4.363-1.016-1.432.362-2.688 1.172-3.765 2.424-1.078 1.253-1.938 2.904-2.579 4.952-.708 2.354-1.116 4.996-1.225 7.925-.109 2.93.104 5.449.641 7.562.641 2.521 1.625 4.338 2.959 5.449 1.334 1.112 2.922 1.434 4.762.968 2.965-.752 5.05-3.475 6.249-8.168.622-2.405.941-5.005.958-7.803.015-2.795-.267-5.334-.845-7.617zM241.209 163.39l-5.007 1.271-.083-1.829 5.058-1.283-.887-23.652c-.125-3.921-.043-7.097.246-9.528s.827-4.598 1.614-6.502c1.936-4.661 5.083-7.545 9.443-8.652 1.466-.372 2.873-.474 4.22-.308l-.658 5.117c-1.849-1.562-3.827-2.076-5.938-1.54-1.604.407-2.748 1.358-3.437 2.857-.69 1.498-1.03 3.769-1.02 6.812l.402 34.385 8.229-2.088.081 1.827-8.277 2.102.363 30.803c.067 4.118-.092 7.24-.478 9.368-.385 2.129-1.119 4.2-2.203 6.217-1.973 3.655-4.577 5.895-7.814 6.716-1.567.397-3.034.479-4.398.245l1.57-4.314c1.726.794 3.422.98 5.092.558 2.521-.641 4.075-2.449 4.66-5.425.419-2.21.561-5.727.424-10.551l-1.202-32.606z"/><path d="M257.973 159.137l-5.009 1.271-.085-1.828 5.06-1.283-.887-23.654c-.124-3.92-.045-7.097.246-9.527s.827-4.598 1.614-6.502c1.938-4.66 5.083-7.545 9.445-8.652 1.464-.371 2.871-.475 4.22-.309l-.66 5.117c-1.847-1.562-3.827-2.075-5.94-1.54-1.602.407-2.746 1.359-3.435 2.857-.689 1.499-1.03 3.77-1.018 6.813l.402 34.385 8.227-2.089.083 1.829-8.277 2.101.363 30.804c.065 4.117-.094 7.238-.48 9.367-.384 2.13-1.118 4.201-2.202 6.217-1.973 3.654-4.579 5.895-7.813 6.715-1.567.398-3.035.479-4.399.246l1.57-4.315c1.725.796 3.424.982 5.092.558 2.522-.639 4.075-2.447 4.66-5.425.419-2.209.561-5.727.424-10.552l-1.201-32.604zM294.214 170.556l1.112.532c-1.403 3.33-2.95 5.871-4.646 7.625-1.694 1.755-3.701 2.925-6.016 3.512-2.761.701-5.209.345-7.344-1.073-2.136-1.415-3.589-3.64-4.358-6.671-.779-3.067-.758-6.382.061-9.943.817-3.562 2.186-6.683 4.098-9.362 1.913-2.68 4.062-4.322 6.447-4.927 1.395-.354 2.648-.237 3.76.352 1.108.589 1.829 1.529 2.159 2.824.665 2.624-.102 5.61-2.296 8.959-2.196 3.352-5.532 6.572-10.007 9.664.038.283.098.594.185.934.595 2.351 1.729 4.104 3.399 5.256 1.672 1.153 3.529 1.472 5.574.952 1.601-.406 3.021-1.302 4.267-2.687 1.244-1.386 2.445-3.369 3.605-5.947zm-17.34.265c3.264-2.569 5.631-5.109 7.095-7.621.984-1.698 1.685-3.437 2.105-5.212.42-1.773.47-3.291.15-4.553-.407-1.602-1.343-2.217-2.808-1.844-2.215.562-4.012 2.877-5.391 6.943-1.379 4.069-1.761 8.164-1.151 12.287zM319.561 164.125l1.114.531c-1.403 3.33-2.952 5.871-4.646 7.626-1.694 1.753-3.701 2.925-6.018 3.512-2.759.7-5.209.342-7.343-1.073-2.137-1.417-3.59-3.641-4.359-6.673-.777-3.066-.756-6.381.062-9.942.817-3.562 2.184-6.683 4.096-9.361 1.913-2.681 4.062-4.323 6.449-4.928 1.395-.354 2.646-.237 3.758.351 1.11.59 1.83 1.531 2.159 2.826.665 2.624-.1 5.608-2.296 8.958-2.196 3.351-5.532 6.572-10.005 9.664.036.282.097.593.184.934.596 2.35 1.729 4.104 3.398 5.256 1.672 1.153 3.531 1.471 5.574.954 1.601-.408 3.021-1.305 4.268-2.689 1.245-1.386 2.444-3.37 3.605-5.946zm-17.338.263c3.264-2.567 5.629-5.107 7.094-7.618.983-1.701 1.686-3.438 2.106-5.214.419-1.772.47-3.292.149-4.553-.406-1.601-1.342-2.215-2.807-1.843-2.217.562-4.012 2.876-5.391 6.943-1.379 4.068-1.764 8.162-1.151 12.285z"/></g><g fill="#FFF"><path d="M212.764 259.825c-1.362 0-2.554-.16-3.577-.479-1.022-.319-1.896-.761-2.617-1.322a6.424 6.424 0 0 1-1.721-2.014 8.069 8.069 0 0 1-.87-2.556h3.869c.142.567.343 1.098.603 1.588.261.491.586.917.977 1.277.391.361.857.645 1.402.852.543.208 1.171.312 1.88.312.474 0 .944-.051 1.411-.15a4.053 4.053 0 0 0 1.252-.488c.366-.225.662-.521.887-.888.224-.366.337-.816.337-1.349a3.2 3.2 0 0 0-.523-1.802 5.95 5.95 0 0 0-1.376-1.438 12.427 12.427 0 0 0-1.941-1.197 653.98 653.98 0 0 0-2.229-1.118 46.785 46.785 0 0 1-2.227-1.189 11.118 11.118 0 0 1-1.943-1.384c-.567-.509-1.026-1.083-1.375-1.722s-.523-1.372-.523-2.2c0-.898.198-1.733.594-2.502.397-.77.968-1.438 1.714-2.005.744-.567 1.661-1.012 2.75-1.331 1.088-.32 2.324-.479 3.708-.479 1.147 0 2.186.159 3.115.479a8.308 8.308 0 0 1 2.449 1.305 7.94 7.94 0 0 1 1.782 1.943 9.414 9.414 0 0 1 1.119 2.395h-3.515a11.478 11.478 0 0 0-.7-1.544 5.195 5.195 0 0 0-.994-1.286c-.396-.373-.872-.669-1.429-.888s-1.219-.328-1.987-.328c-.733 0-1.348.095-1.846.284-.497.188-.899.432-1.207.728a2.68 2.68 0 0 0-.665.984 2.985 2.985 0 0 0-.204 1.056c0 .616.181 1.169.541 1.66.361.49.834.949 1.42 1.376.585.425 1.254.83 2.005 1.215s1.518.771 2.299 1.162c.78.391 1.546.802 2.297 1.233.753.432 1.42.905 2.007 1.42.585.515 1.058 1.085 1.419 1.712s.542 1.337.542 2.13c0 .923-.193 1.783-.578 2.581-.384.799-.952 1.492-1.703 2.077-.751.586-1.68 1.047-2.786 1.384-1.109.337-2.388.506-3.843.506zM231.893 248.645v10.825h-5.59v-22.75h5.59v9.973h9.139v-9.973h5.538v22.75h-5.538v-10.825h-9.139zM263.96 259.984a14.94 14.94 0 0 1-3.514-.408c-1.124-.272-2.166-.656-3.124-1.153s-1.831-1.106-2.617-1.828-1.458-1.526-2.014-2.413a11.298 11.298 0 0 1-1.287-2.911 12.032 12.032 0 0 1-.453-3.335c0-1.729.335-3.308 1.003-4.739.669-1.431 1.585-2.661 2.751-3.69s2.54-1.831 4.126-2.404c1.585-.574 3.295-.861 5.129-.861 1.833 0 3.54.287 5.119.861 1.579.573 2.952 1.375 4.117 2.404s2.082 2.26 2.751 3.69c.668 1.432 1.003 2.999 1.003 4.702 0 1.811-.335 3.458-1.003 4.942a11.42 11.42 0 0 1-2.751 3.815c-1.165 1.06-2.538 1.879-4.117 2.458s-3.286.87-5.119.87zm0-1.934c1.1 0 2.072-.251 2.918-.755.848-.502 1.557-1.203 2.131-2.103.573-.898 1.009-1.966 1.304-3.202.296-1.236.443-2.588.443-4.055 0-1.433-.147-2.749-.443-3.949-.295-1.2-.73-2.233-1.304-3.097-.574-.864-1.283-1.535-2.131-2.015-.846-.479-1.818-.718-2.918-.718-1.124 0-2.109.239-2.955.718-.846.479-1.559 1.15-2.139 2.015-.579.863-1.015 1.896-1.304 3.097-.291 1.2-.435 2.517-.435 3.949 0 1.467.144 2.818.435 4.055.289 1.236.725 2.304 1.304 3.202.58.899 1.293 1.601 2.139 2.103.846.504 1.831.755 2.955.755zM281.333 236.72h7.933c1.277 0 2.472.136 3.584.408 1.112.271 2.079.674 2.902 1.206a6.037 6.037 0 0 1 1.943 1.996c.473.799.709 1.731.709 2.796 0 1.076-.233 2.014-.7 2.812-.468.799-1.084 1.466-1.847 1.998s-1.636.931-2.617 1.197-1.981.399-3 .399h-3.3v9.938h-5.607v-22.75zm5.607 10.754h1.828c.626 0 1.177-.116 1.65-.347.473-.23.866-.541 1.18-.932s.547-.843.701-1.357c.153-.515.23-1.056.23-1.624 0-.686-.1-1.292-.301-1.818s-.479-.973-.835-1.34a3.52 3.52 0 0 0-1.251-.834 4.142 4.142 0 0 0-1.535-.284h-1.668v8.536z"/></g></svg>